<?xml version="1.0" encoding="UTF-8"?>
<svg xmlns="http://www.w3.org/2000/svg" version="1.1" width="100" height="100" viewBox="0 0 100 100"><rect x="0" y="0" width="100" height="100" fill="#ffffff"/><g transform="scale(3.448)"><g transform="translate(0,0)"><path fill-rule="evenodd" d="M12 0L12 1L13 1L13 2L12 2L12 3L13 3L13 4L11 4L11 3L8 3L8 4L9 4L9 5L8 5L8 7L9 7L9 8L6 8L6 9L5 9L5 8L0 8L0 11L1 11L1 14L2 14L2 13L4 13L4 14L3 14L3 15L2 15L2 16L3 16L3 17L2 17L2 18L3 18L3 20L4 20L4 21L5 21L5 20L4 20L4 18L6 18L6 19L7 19L7 20L6 20L6 21L8 21L8 23L9 23L9 21L8 21L8 20L10 20L10 19L11 19L11 20L13 20L13 21L11 21L11 22L10 22L10 24L8 24L8 29L9 29L9 25L10 25L10 24L11 24L11 22L12 22L12 24L13 24L13 25L11 25L11 26L10 26L10 27L11 27L11 28L10 28L10 29L11 29L11 28L13 28L13 29L14 29L14 28L17 28L17 29L19 29L19 28L22 28L22 27L23 27L23 26L24 26L24 27L26 27L26 26L24 26L24 25L28 25L28 26L27 26L27 28L24 28L24 29L27 29L27 28L28 28L28 26L29 26L29 25L28 25L28 24L29 24L29 23L27 23L27 22L29 22L29 20L28 20L28 19L27 19L27 16L28 16L28 15L27 15L27 12L28 12L28 11L27 11L27 12L25 12L25 9L26 9L26 8L25 8L25 9L24 9L24 8L23 8L23 9L22 9L22 8L20 8L20 9L18 9L18 8L17 8L17 6L16 6L16 5L17 5L17 4L18 4L18 5L20 5L20 3L21 3L21 0L19 0L19 1L17 1L17 0L16 0L16 1L15 1L15 2L14 2L14 1L13 1L13 0ZM8 1L8 2L9 2L9 1ZM10 1L10 2L11 2L11 1ZM19 1L19 2L20 2L20 1ZM13 2L13 3L14 3L14 2ZM16 2L16 3L15 3L15 4L13 4L13 8L10 8L10 9L8 9L8 10L7 10L7 9L6 9L6 10L7 10L7 11L6 11L6 12L5 12L5 11L4 11L4 9L2 9L2 10L1 10L1 11L2 11L2 12L4 12L4 13L5 13L5 14L4 14L4 15L3 15L3 16L4 16L4 17L3 17L3 18L4 18L4 17L5 17L5 16L7 16L7 15L8 15L8 14L9 14L9 13L8 13L8 12L7 12L7 11L9 11L9 12L11 12L11 13L10 13L10 15L9 15L9 16L8 16L8 17L6 17L6 18L8 18L8 19L10 19L10 18L11 18L11 19L12 19L12 18L11 18L11 17L13 17L13 16L14 16L14 15L15 15L15 16L18 16L18 17L20 17L20 18L19 18L19 19L18 19L18 18L17 18L17 20L16 20L16 21L14 21L14 22L16 22L16 23L13 23L13 24L14 24L14 26L16 26L16 25L15 25L15 24L16 24L16 23L17 23L17 24L18 24L18 25L17 25L17 28L18 28L18 27L20 27L20 23L19 23L19 24L18 24L18 22L19 22L19 20L21 20L21 19L22 19L22 18L21 18L21 17L20 17L20 16L21 16L21 14L22 14L22 17L23 17L23 18L24 18L24 19L25 19L25 21L26 21L26 20L27 20L27 19L25 19L25 18L24 18L24 17L26 17L26 16L27 16L27 15L26 15L26 13L25 13L25 12L24 12L24 9L23 9L23 12L22 12L22 13L20 13L20 12L21 12L21 11L22 11L22 10L21 10L21 9L20 9L20 10L19 10L19 11L16 11L16 12L15 12L15 11L14 11L14 9L13 9L13 8L14 8L14 6L15 6L15 8L16 8L16 9L15 9L15 10L16 10L16 9L17 9L17 10L18 10L18 9L17 9L17 8L16 8L16 6L15 6L15 5L16 5L16 4L17 4L17 3L18 3L18 4L19 4L19 3L18 3L18 2ZM10 4L10 6L9 6L9 7L10 7L10 6L11 6L11 7L12 7L12 5L11 5L11 4ZM18 6L18 7L19 7L19 6ZM20 6L20 7L21 7L21 6ZM27 8L27 9L28 9L28 10L29 10L29 9L28 9L28 8ZM10 9L10 11L11 11L11 10L12 10L12 12L13 12L13 13L11 13L11 14L12 14L12 15L13 15L13 14L14 14L14 13L15 13L15 12L13 12L13 9ZM6 12L6 13L7 13L7 12ZM17 12L17 13L16 13L16 14L15 14L15 15L16 15L16 14L17 14L17 13L18 13L18 14L20 14L20 13L18 13L18 12ZM23 12L23 13L22 13L22 14L23 14L23 13L24 13L24 14L25 14L25 13L24 13L24 12ZM28 13L28 14L29 14L29 13ZM5 14L5 15L7 15L7 14ZM23 15L23 16L24 16L24 15ZM0 16L0 21L1 21L1 16ZM8 17L8 18L9 18L9 17ZM14 17L14 18L16 18L16 17ZM28 17L28 18L29 18L29 17ZM13 19L13 20L14 20L14 19ZM17 20L17 21L16 21L16 22L17 22L17 21L18 21L18 20ZM21 21L21 24L24 24L24 21ZM22 22L22 23L23 23L23 22ZM25 23L25 24L27 24L27 23ZM22 25L22 26L21 26L21 27L22 27L22 26L23 26L23 25ZM11 26L11 27L12 27L12 26ZM13 27L13 28L14 28L14 27ZM0 0L0 7L7 7L7 0ZM1 1L1 6L6 6L6 1ZM2 2L2 5L5 5L5 2ZM22 0L22 7L29 7L29 0ZM23 1L23 6L28 6L28 1ZM24 2L24 5L27 5L27 2ZM0 22L0 29L7 29L7 22ZM1 23L1 28L6 28L6 23ZM2 24L2 27L5 27L5 24Z" fill="#000000"/></g></g></svg>
